<svg xmlns="http://www.w3.org/2000/svg" width="512" height="512" stroke="#000" stroke-linecap="round" stroke-linejoin="round" fill="#fff" fill-rule="evenodd"><path fill="#000" d="M256.0118 427.702c-94.7244 0-171.7043-76.98-171.7043-171.7044S161.2874 84.2933 256.0118 84.2933s171.7043 76.98 171.7043 171.7043S350.7362 427.702 256.0118 427.702zM113.558 237.4743h51.6389c7.8275-37.8383 38.6195-67.3265 76.9799-73.0634v-51.4082c-66.5406 6.2647-120.0403 58.4542-128.6188 124.4716zm155.497-124.4669v51.1443c38.8835 5.7424 69.9339 35.231 77.7611 73.3274h51.6664c-8.6134-66.2814-62.3649-118.4662-129.4381-124.467zm-80.3732 124.4669h53.4926v-50.1039c-25.8355 5.2198-46.7106 24.7904-53.4926 50.1039zm80.3732-50.1039v50.1039h54.2785c-7.046-25.5716-27.921-45.1434-54.2785-50.1039zM512 256c0 141.4398-114.5592 256-256 256S0 397.4409 0 256 114.5591 0 256 0s256 114.5591 256 256z" stroke="none"/></svg>